<svg xmlns="http://www.w3.org/2000/svg" width="32" height="32" fill="none"><ellipse cx="15.931" cy="16" fill="#375A9E" rx="10.467" ry="16"/><circle cx="16" cy="16" r="16" fill="#375A9E"/><path fill="#49ADBB" d="M16 0C7.163 0 0 7.163 0 16c0 2.063.39 4.035 1.102 5.846l9.975-8 7.077 8 11.615-14C26.982 3.15 21.86 0 16 0Z"/><path fill="#fff" fill-rule="evenodd" d="M30.052 8.135 18.322 22.72l-7.294-8.381-9.5 8.014-.594-.705 10.193-8.6 7.167 8.234 11.04-13.724.718.578Z" clip-rule="evenodd"/><path fill="#fff" fill-rule="evenodd" d="M1.984 23.722A15.895 15.895 0 0 1 .44 19.746a2.154 2.154 0 0 1 1.542 3.975ZM28.652 6.206a15.986 15.986 0 0 1 2.155 3.722 2.154 2.154 0 0 1-2.154-3.722Z" clip-rule="evenodd"/><circle r="2.154" fill="#fff" transform="matrix(-1 0 0 1 11.077 13.846)"/><circle r="2.154" fill="#fff" transform="matrix(-1 0 0 1 18.155 21.846)"/></svg>